<?xml version="1.0" encoding="utf-8"?>
<!-- created with bpmn-js / http://bpmn.io -->
<!DOCTYPE svg PUBLIC "-//W3C//DTD SVG 1.1//EN" "http://www.w3.org/Graphics/SVG/1.1/DTD/svg11.dtd">
<svg xmlns="http://www.w3.org/2000/svg" xmlns:xlink="http://www.w3.org/1999/xlink" width="1250" height="670" viewBox="146 54 1250 670" version="1.1"><defs><marker id="sequenceflow-end-white-black-b2tltrh9e059gtbrlj3nohnuy" viewBox="0 0 20 20" refX="11" refY="10" markerWidth="10" markerHeight="10" orient="auto"><path d="M 1 5 L 11 10 L 1 15 Z" style="fill: black; stroke-width: 1px; stroke-linecap: round; stroke-dasharray: 10000px, 1px; stroke: black;"/></marker><marker id="messageflow-end-white-black-b2tltrh9e059gtbrlj3nohnuy" viewBox="0 0 20 20" refX="8.5" refY="5" markerWidth="20" markerHeight="20" orient="auto"><path d="m 1 5 l 0 -3 l 7 3 l -7 3 z" style="fill: white; stroke-width: 1px; stroke-linecap: butt; stroke-dasharray: 10000px, 1px; stroke: black;"/></marker><marker id="messageflow-start-white-black-b2tltrh9e059gtbrlj3nohnuy" viewBox="0 0 20 20" refX="6" refY="6" markerWidth="20" markerHeight="20" orient="auto"><circle cx="6" cy="6" r="3.5" style="fill: white; stroke-width: 1px; stroke-linecap: round; stroke-dasharray: 10000px, 1px; stroke: black;"/></marker></defs><g class="djs-group"><g class="djs-element djs-shape" data-element-id="Participant_0mhpsnm" transform="matrix(1, 0, 0, 1, 152, 60)" style="display: block;"><g class="djs-visual"><rect x="0" y="0" width="1238" height="250" rx="0" ry="0" style="stroke: black; stroke-width: 2px; fill: white; fill-opacity: 0.95;"/><polyline points="30,0 30,250 " style="fill: none; stroke: black; stroke-width: 2px;"/><text style="font-family: Arial, sans-serif; font-size: 12px; font-weight: normal; fill: black;" lineHeight="1.2" class="djs-label" transform="matrix(-1.83697e-16, -1, 1, -1.83697e-16, 0, 250)"><tspan x="100" y="18.6">Frontend</tspan></text></g><rect x="-6" y="-6" width="1250" height="262" style="fill: none;" class="djs-outline"/><rect style="fill: none; stroke-opacity: 0; stroke: white; stroke-width: 15px;" class="djs-hit djs-hit-click-stroke" x="0" y="0" width="1238" height="250"/><rect style="fill: none; stroke-opacity: 0; stroke: white; stroke-width: 15px;" class="djs-hit djs-hit-all" x="0" y="0" width="30" height="250"/></g><g class="djs-children"><g class="djs-group"><g class="djs-element djs-connection" data-element-id="SequenceFlow_0h21x7r" style="display: block;"><g class="djs-visual"><path d="m  238,190L300,190 " style="fill: none; stroke-width: 2px; stroke: black; stroke-linejoin: round; marker-end: url('#sequenceflow-end-white-black-b2tltrh9e059gtbrlj3nohnuy');"/></g><polyline points="238,190 300,190 " style="fill: none; stroke-opacity: 0; stroke: white; stroke-width: 15px;" class="djs-hit djs-hit-stroke"/><rect x="232" y="184" width="74" height="12" style="fill: none;" class="djs-outline"/></g></g><g class="djs-group"><g class="djs-element djs-connection" data-element-id="Flow_12ht1sh" style="display: block;"><g class="djs-visual"><path d="m  400,190L612,190 " style="fill: none; stroke-width: 2px; stroke: black; stroke-linejoin: round; marker-end: url('#sequenceflow-end-white-black-b2tltrh9e059gtbrlj3nohnuy');"/></g><polyline points="400,190 612,190 " style="fill: none; stroke-opacity: 0; stroke: white; stroke-width: 15px;" class="djs-hit djs-hit-stroke"/><rect x="394" y="184" width="224" height="12" style="fill: none;" class="djs-outline"/></g></g><g class="djs-group"><g class="djs-element djs-connection" data-element-id="Flow_1g4nbo5" style="display: block;"><g class="djs-visual"><path d="m  648,190L870,190 " style="fill: none; stroke-width: 2px; stroke: black; stroke-linejoin: round; marker-end: url('#sequenceflow-end-white-black-b2tltrh9e059gtbrlj3nohnuy');"/></g><polyline points="648,190 870,190 " style="fill: none; stroke-opacity: 0; stroke: white; stroke-width: 15px;" class="djs-hit djs-hit-stroke"/><rect x="642" y="184" width="234" height="12" style="fill: none;" class="djs-outline"/></g></g><g class="djs-group"><g class="djs-element djs-connection" data-element-id="Flow_1xzmybg" style="display: block;"><g class="djs-visual"><path d="m  970,190L1090,190 " style="fill: none; stroke-width: 2px; stroke: black; stroke-linejoin: round; marker-end: url('#sequenceflow-end-white-black-b2tltrh9e059gtbrlj3nohnuy');"/></g><polyline points="970,190 1090,190 " style="fill: none; stroke-opacity: 0; stroke: white; stroke-width: 15px;" class="djs-hit djs-hit-stroke"/><rect x="964" y="184" width="132" height="12" style="fill: none;" class="djs-outline"/></g></g><g class="djs-group"><g class="djs-element djs-connection" data-element-id="Flow_10mfzky" style="display: block;"><g class="djs-visual"><path d="m  1190,190L1242,190 " style="fill: none; stroke-width: 2px; stroke: black; stroke-linejoin: round; marker-end: url('#sequenceflow-end-white-black-b2tltrh9e059gtbrlj3nohnuy');"/></g><polyline points="1190,190 1242,190 " style="fill: none; stroke-opacity: 0; stroke: white; stroke-width: 15px;" class="djs-hit djs-hit-stroke"/><rect x="1184" y="184" width="64" height="12" style="fill: none;" class="djs-outline"/></g></g><g class="djs-group"><g class="djs-element djs-shape" data-element-id="StartEvent_1y45yut" transform="matrix(1, 0, 0, 1, 202, 172)" style="display: block;"><g class="djs-visual"><circle cx="18" cy="18" r="18" style="stroke: black; stroke-width: 2px; fill: white; fill-opacity: 0.95;"/></g><rect style="fill: none; stroke-opacity: 0; stroke: white; stroke-width: 15px;" class="djs-hit djs-hit-all" x="0" y="0" width="36" height="36"/><rect x="-6" y="-6" width="48" height="48" style="fill: none;" class="djs-outline"/></g></g><g class="djs-group"><g class="djs-element djs-shape" data-element-id="Task_1hcentk" transform="matrix(1, 0, 0, 1, 300, 150)" style="display: block;"><g class="djs-visual"><rect x="0" y="0" width="100" height="80" rx="10" ry="10" style="stroke: black; stroke-width: 2px; fill: white; fill-opacity: 0.95;"/><text style="font-family: Arial, sans-serif; font-size: 12px; font-weight: normal; fill: black;" lineHeight="1.2" class="djs-label"><tspan x="11" y="36.4">Get input from </tspan><tspan x="37" y="50.8">user</tspan></text></g><rect style="fill: none; stroke-opacity: 0; stroke: white; stroke-width: 15px;" class="djs-hit djs-hit-all" x="0" y="0" width="100" height="80"/><rect x="-6" y="-6" width="112" height="92" style="fill: none;" class="djs-outline"/></g></g><g class="djs-group"><g class="djs-element djs-shape" data-element-id="Activity_06xgzib" transform="matrix(1, 0, 0, 1, 1090, 150)" style="display: block;"><g class="djs-visual"><rect x="0" y="0" width="100" height="80" rx="10" ry="10" style="stroke: black; stroke-width: 2px; fill: white; fill-opacity: 0.95;"/><text style="font-family: Arial, sans-serif; font-size: 12px; font-weight: normal; fill: black;" lineHeight="1.2" class="djs-label"><tspan x="12" y="36.4">Print output to </tspan><tspan x="27" y="50.8">the user</tspan></text></g><rect style="fill: none; stroke-opacity: 0; stroke: white; stroke-width: 15px;" class="djs-hit djs-hit-all" x="0" y="0" width="100" height="80"/><rect x="-6" y="-6" width="112" height="92" style="fill: none;" class="djs-outline"/></g></g><g class="djs-group"><g class="djs-element djs-shape" data-element-id="Event_0dsylnc" transform="matrix(1, 0, 0, 1, 1242, 172)" style="display: block;"><g class="djs-visual"><circle cx="18" cy="18" r="18" style="stroke: black; stroke-width: 4px; fill: white; fill-opacity: 0.95;"/></g><rect style="fill: none; stroke-opacity: 0; stroke: white; stroke-width: 15px;" class="djs-hit djs-hit-all" x="0" y="0" width="36" height="36"/><rect x="-6" y="-6" width="48" height="48" style="fill: none;" class="djs-outline"/></g></g><g class="djs-group"><g class="djs-element djs-shape" data-element-id="Activity_1v399b6" transform="matrix(1, 0, 0, 1, 870, 150)" style="display: block;"><g class="djs-visual"><rect x="0" y="0" width="100" height="80" rx="10" ry="10" style="stroke: black; stroke-width: 2px; fill: white; fill-opacity: 0.95;"/><text style="font-family: Arial, sans-serif; font-size: 12px; font-weight: normal; fill: black;" lineHeight="1.2" class="djs-label"><tspan x="27.5" y="36.4">Receive </tspan><tspan x="23" y="50.8">response</tspan></text></g><rect style="fill: none; stroke-opacity: 0; stroke: white; stroke-width: 15px;" class="djs-hit djs-hit-all" x="0" y="0" width="100" height="80"/><rect x="-6" y="-6" width="112" height="92" style="fill: none;" class="djs-outline"/></g></g><g class="djs-group"><g class="djs-element djs-shape" data-element-id="Event_1av7y68" transform="matrix(1, 0, 0, 1, 612, 172)" style="display: block;"><g class="djs-visual"><circle cx="18" cy="18" r="18" style="stroke: black; stroke-width: 1px; fill: white; fill-opacity: 0.95;"/><circle cx="18" cy="18" r="15" style="stroke: black; stroke-width: 1px; fill: none;"/><circle cx="18" cy="18" r="11" style="stroke: black; stroke-width: 2px; fill: white;"/><path d="M 18,18 l 2.25,-7.5 m -2.25,7.5 l 5.25,1.5 " style="fill: none; stroke-width: 2px; stroke: black; stroke-linecap: square;"/><path d="M 18,18 m 0,7.5 l -0,2.25 " style="fill: none; stroke-width: 1px; stroke: black; stroke-linecap: square;" transform="rotate(0,18,18)"/><path d="M 18,18 m 0,7.5 l -0,2.25 " style="fill: none; stroke-width: 1px; stroke: black; stroke-linecap: square;" transform="rotate(30,18,18)"/><path d="M 18,18 m 0,7.5 l -0,2.25 " style="fill: none; stroke-width: 1px; stroke: black; stroke-linecap: square;" transform="rotate(60,18,18)"/><path d="M 18,18 m 0,7.5 l -0,2.25 " style="fill: none; stroke-width: 1px; stroke: black; stroke-linecap: square;" transform="rotate(90,18,18)"/><path d="M 18,18 m 0,7.5 l -0,2.25 " style="fill: none; stroke-width: 1px; stroke: black; stroke-linecap: square;" transform="rotate(120,18,18)"/><path d="M 18,18 m 0,7.5 l -0,2.25 " style="fill: none; stroke-width: 1px; stroke: black; stroke-linecap: square;" transform="rotate(150,18,18)"/><path d="M 18,18 m 0,7.5 l -0,2.25 " style="fill: none; stroke-width: 1px; stroke: black; stroke-linecap: square;" transform="rotate(180,18,18)"/><path d="M 18,18 m 0,7.5 l -0,2.25 " style="fill: none; stroke-width: 1px; stroke: black; stroke-linecap: square;" transform="rotate(210,18,18)"/><path d="M 18,18 m 0,7.5 l -0,2.25 " style="fill: none; stroke-width: 1px; stroke: black; stroke-linecap: square;" transform="rotate(240,18,18)"/><path d="M 18,18 m 0,7.5 l -0,2.25 " style="fill: none; stroke-width: 1px; stroke: black; stroke-linecap: square;" transform="rotate(270,18,18)"/><path d="M 18,18 m 0,7.5 l -0,2.25 " style="fill: none; stroke-width: 1px; stroke: black; stroke-linecap: square;" transform="rotate(300,18,18)"/><path d="M 18,18 m 0,7.5 l -0,2.25 " style="fill: none; stroke-width: 1px; stroke: black; stroke-linecap: square;" transform="rotate(330,18,18)"/></g><rect style="fill: none; stroke-opacity: 0; stroke: white; stroke-width: 15px;" class="djs-hit djs-hit-all" x="0" y="0" width="36" height="36"/><rect x="-6" y="-6" width="48" height="48" style="fill: none;" class="djs-outline"/></g></g></g></g><g class="djs-group"><g class="djs-element djs-shape" data-element-id="Participant_0nq0791" transform="matrix(1, 0, 0, 1, 152, 400)" style="display: block;"><g class="djs-visual"><rect x="0" y="0" width="1238" height="318" rx="0" ry="0" style="stroke: black; stroke-width: 2px; fill: white; fill-opacity: 0.95;"/><polyline points="30,0 30,318 " style="fill: none; stroke: black; stroke-width: 2px;"/><text style="font-family: Arial, sans-serif; font-size: 12px; font-weight: normal; fill: black;" lineHeight="1.2" class="djs-label" transform="matrix(-1.83697e-16, -1, 1, -1.83697e-16, 0, 318)"><tspan x="134.5" y="18.6">Backend</tspan></text></g><rect x="-6" y="-6" width="1250" height="330" style="fill: none;" class="djs-outline"/><rect style="fill: none; stroke-opacity: 0; stroke: white; stroke-width: 15px;" class="djs-hit djs-hit-click-stroke" x="0" y="0" width="1238" height="318"/><rect style="fill: none; stroke-opacity: 0; stroke: white; stroke-width: 15px;" class="djs-hit djs-hit-all" x="0" y="0" width="30" height="318"/></g><g class="djs-children"><g class="djs-group"><g class="djs-element djs-connection" data-element-id="Flow_16hw9yx" style="display: block;"><g class="djs-visual"><path d="m  248,530L300,530 " style="fill: none; stroke-width: 2px; stroke: black; stroke-linejoin: round; marker-end: url('#sequenceflow-end-white-black-b2tltrh9e059gtbrlj3nohnuy');"/></g><polyline points="248,530 300,530 " style="fill: none; stroke-opacity: 0; stroke: white; stroke-width: 15px;" class="djs-hit djs-hit-stroke"/><rect x="242" y="524" width="64" height="12" style="fill: none;" class="djs-outline"/></g></g><g class="djs-group"><g class="djs-element djs-connection" data-element-id="Flow_12xoyb5" style="display: block;"><g class="djs-visual"><path d="m  400,530L452,530 " style="fill: none; stroke-width: 2px; stroke: black; stroke-linejoin: round; marker-end: url('#sequenceflow-end-white-black-b2tltrh9e059gtbrlj3nohnuy');"/></g><polyline points="400,530 452,530 " style="fill: none; stroke-opacity: 0; stroke: white; stroke-width: 15px;" class="djs-hit djs-hit-stroke"/><rect x="394" y="524" width="64" height="12" style="fill: none;" class="djs-outline"/></g></g><g class="djs-group"><g class="djs-element djs-connection" data-element-id="Flow_125d6h7" style="display: block;"><g class="djs-visual"><path d="m  488,530L540,530 " style="fill: none; stroke-width: 2px; stroke: black; stroke-linejoin: round; marker-end: url('#sequenceflow-end-white-black-b2tltrh9e059gtbrlj3nohnuy');"/></g><polyline points="488,530 540,530 " style="fill: none; stroke-opacity: 0; stroke: white; stroke-width: 15px;" class="djs-hit djs-hit-stroke"/><rect x="482" y="524" width="64" height="12" style="fill: none;" class="djs-outline"/></g></g><g class="djs-group"><g class="djs-element djs-connection" data-element-id="Flow_12ou4cj" style="display: block;"><g class="djs-visual"><path d="m  640,530L692,530 " style="fill: none; stroke-width: 2px; stroke: black; stroke-linejoin: round; marker-end: url('#sequenceflow-end-white-black-b2tltrh9e059gtbrlj3nohnuy');"/></g><polyline points="640,530 692,530 " style="fill: none; stroke-opacity: 0; stroke: white; stroke-width: 15px;" class="djs-hit djs-hit-stroke"/><rect x="634" y="524" width="64" height="12" style="fill: none;" class="djs-outline"/></g></g><g class="djs-group"><g class="djs-element djs-connection" data-element-id="Flow_1ool0h1" style="display: block;"><g class="djs-visual"><path d="m  728,530L780,530 " style="fill: none; stroke-width: 2px; stroke: black; stroke-linejoin: round; marker-end: url('#sequenceflow-end-white-black-b2tltrh9e059gtbrlj3nohnuy');"/></g><polyline points="728,530 780,530 " style="fill: none; stroke-opacity: 0; stroke: white; stroke-width: 15px;" class="djs-hit djs-hit-stroke"/><rect x="722" y="524" width="64" height="12" style="fill: none;" class="djs-outline"/></g></g><g class="djs-group"><g class="djs-element djs-connection" data-element-id="Flow_0aty4wa" style="display: block;"><g class="djs-visual"><path d="m  880,530L935,530 " style="fill: none; stroke-width: 2px; stroke: black; stroke-linejoin: round; marker-end: url('#sequenceflow-end-white-black-b2tltrh9e059gtbrlj3nohnuy');"/></g><polyline points="880,530 935,530 " style="fill: none; stroke-opacity: 0; stroke: white; stroke-width: 15px;" class="djs-hit djs-hit-stroke"/><rect x="874" y="524" width="67" height="12" style="fill: none;" class="djs-outline"/></g></g><g class="djs-group"><g class="djs-element djs-connection" data-element-id="Flow_10fafsk" style="display: block;"><g class="djs-visual"><path d="m  960,505L960,470 L1070,470 " style="fill: none; stroke-width: 2px; stroke: black; stroke-linejoin: round; marker-end: url('#sequenceflow-end-white-black-b2tltrh9e059gtbrlj3nohnuy');"/></g><polyline points="960,505 960,470 1070,470 " style="fill: none; stroke-opacity: 0; stroke: white; stroke-width: 15px;" class="djs-hit djs-hit-stroke"/><rect x="954" y="464" width="122" height="47" style="fill: none;" class="djs-outline"/></g></g><g class="djs-group"><g class="djs-element djs-connection" data-element-id="Flow_1v8eama" style="display: block;"><g class="djs-visual"><path d="m  960,555L960,600 L1070,600 " style="fill: none; stroke-width: 2px; stroke: black; stroke-linejoin: round; marker-end: url('#sequenceflow-end-white-black-b2tltrh9e059gtbrlj3nohnuy');"/></g><polyline points="960,555 960,600 1070,600 " style="fill: none; stroke-opacity: 0; stroke: white; stroke-width: 15px;" class="djs-hit djs-hit-stroke"/><rect x="954" y="549" width="122" height="57" style="fill: none;" class="djs-outline"/></g></g><g class="djs-group"><g class="djs-element djs-connection" data-element-id="Flow_0nmegbd" style="display: block;"><g class="djs-visual"><path d="m  1170,470L1216,470 L1216,540 L1262,540 " style="fill: none; stroke-width: 2px; stroke: black; stroke-linejoin: round; marker-end: url('#sequenceflow-end-white-black-b2tltrh9e059gtbrlj3nohnuy');"/></g><polyline points="1170,470 1216,470 1216,540 1262,540 " style="fill: none; stroke-opacity: 0; stroke: white; stroke-width: 15px;" class="djs-hit djs-hit-stroke"/><rect x="1164" y="464" width="104" height="82" style="fill: none;" class="djs-outline"/></g></g><g class="djs-group"><g class="djs-element djs-connection" data-element-id="Flow_1xuezph" style="display: block;"><g class="djs-visual"><path d="m  1170,610L1216,610 L1216,540 L1262,540 " style="fill: none; stroke-width: 2px; stroke: black; stroke-linejoin: round; marker-end: url('#sequenceflow-end-white-black-b2tltrh9e059gtbrlj3nohnuy');"/></g><polyline points="1170,610 1216,610 1216,540 1262,540 " style="fill: none; stroke-opacity: 0; stroke: white; stroke-width: 15px;" class="djs-hit djs-hit-stroke"/><rect x="1164" y="534" width="104" height="82" style="fill: none;" class="djs-outline"/></g></g><g class="djs-group"><g class="djs-element djs-shape" data-element-id="Event_1ny03n2" transform="matrix(1, 0, 0, 1, 212, 512)" style="display: block;"><g class="djs-visual"><circle cx="18" cy="18" r="18" style="stroke: black; stroke-width: 2px; fill: white; fill-opacity: 0.95;"/></g><rect style="fill: none; stroke-opacity: 0; stroke: white; stroke-width: 15px;" class="djs-hit djs-hit-all" x="0" y="0" width="36" height="36"/><rect x="-6" y="-6" width="48" height="48" style="fill: none;" class="djs-outline"/></g></g><g class="djs-group"><g class="djs-element djs-shape" data-element-id="Activity_0zz0ttx" transform="matrix(1, 0, 0, 1, 300, 490)" style="display: block;"><g class="djs-visual"><rect x="0" y="0" width="100" height="80" rx="10" ry="10" style="stroke: black; stroke-width: 2px; fill: white; fill-opacity: 0.95;"/><text style="font-family: Arial, sans-serif; font-size: 12px; font-weight: normal; fill: black;" lineHeight="1.2" class="djs-label"><tspan x="24" y="36.4">Listen for </tspan><tspan x="25" y="50.8">requests</tspan></text></g><rect style="fill: none; stroke-opacity: 0; stroke: white; stroke-width: 15px;" class="djs-hit djs-hit-all" x="0" y="0" width="100" height="80"/><rect x="-6" y="-6" width="112" height="92" style="fill: none;" class="djs-outline"/></g></g><g class="djs-group"><g class="djs-element djs-shape" data-element-id="Activity_0kib1fq" transform="matrix(1, 0, 0, 1, 540, 490)" style="display: block;"><g class="djs-visual"><rect x="0" y="0" width="100" height="80" rx="10" ry="10" style="stroke: black; stroke-width: 2px; fill: white; fill-opacity: 0.95;"/><text style="font-family: Arial, sans-serif; font-size: 12px; font-weight: normal; fill: black;" lineHeight="1.2" class="djs-label"><tspan x="8.5" y="43.599999999999994">Send data to AI</tspan></text></g><rect style="fill: none; stroke-opacity: 0; stroke: white; stroke-width: 15px;" class="djs-hit djs-hit-all" x="0" y="0" width="100" height="80"/><rect x="-6" y="-6" width="112" height="92" style="fill: none;" class="djs-outline"/></g></g><g class="djs-group"><g class="djs-element djs-shape" data-element-id="Activity_01ced7k" transform="matrix(1, 0, 0, 1, 780, 490)" style="display: block;"><g class="djs-visual"><rect x="0" y="0" width="100" height="80" rx="10" ry="10" style="stroke: black; stroke-width: 2px; fill: white; fill-opacity: 0.95;"/><text style="font-family: Arial, sans-serif; font-size: 12px; font-weight: normal; fill: black;" lineHeight="1.2" class="djs-label"><tspan x="27.5" y="36.4">Receive </tspan><tspan x="23" y="50.8">response</tspan></text></g><rect style="fill: none; stroke-opacity: 0; stroke: white; stroke-width: 15px;" class="djs-hit djs-hit-all" x="0" y="0" width="100" height="80"/><rect x="-6" y="-6" width="112" height="92" style="fill: none;" class="djs-outline"/></g></g><g class="djs-group"><g class="djs-element djs-shape" data-element-id="Event_0hxpgns" transform="matrix(1, 0, 0, 1, 692, 512)" style="display: block;"><g class="djs-visual"><circle cx="18" cy="18" r="18" style="stroke: black; stroke-width: 1px; fill: white; fill-opacity: 0.95;"/><circle cx="18" cy="18" r="15" style="stroke: black; stroke-width: 1px; fill: none;"/><circle cx="18" cy="18" r="11" style="stroke: black; stroke-width: 2px; fill: white;"/><path d="M 18,18 l 2.25,-7.5 m -2.25,7.5 l 5.25,1.5 " style="fill: none; stroke-width: 2px; stroke: black; stroke-linecap: square;"/><path d="M 18,18 m 0,7.5 l -0,2.25 " style="fill: none; stroke-width: 1px; stroke: black; stroke-linecap: square;" transform="rotate(0,18,18)"/><path d="M 18,18 m 0,7.5 l -0,2.25 " style="fill: none; stroke-width: 1px; stroke: black; stroke-linecap: square;" transform="rotate(30,18,18)"/><path d="M 18,18 m 0,7.5 l -0,2.25 " style="fill: none; stroke-width: 1px; stroke: black; stroke-linecap: square;" transform="rotate(60,18,18)"/><path d="M 18,18 m 0,7.5 l -0,2.25 " style="fill: none; stroke-width: 1px; stroke: black; stroke-linecap: square;" transform="rotate(90,18,18)"/><path d="M 18,18 m 0,7.5 l -0,2.25 " style="fill: none; stroke-width: 1px; stroke: black; stroke-linecap: square;" transform="rotate(120,18,18)"/><path d="M 18,18 m 0,7.5 l -0,2.25 " style="fill: none; stroke-width: 1px; stroke: black; stroke-linecap: square;" transform="rotate(150,18,18)"/><path d="M 18,18 m 0,7.5 l -0,2.25 " style="fill: none; stroke-width: 1px; stroke: black; stroke-linecap: square;" transform="rotate(180,18,18)"/><path d="M 18,18 m 0,7.5 l -0,2.25 " style="fill: none; stroke-width: 1px; stroke: black; stroke-linecap: square;" transform="rotate(210,18,18)"/><path d="M 18,18 m 0,7.5 l -0,2.25 " style="fill: none; stroke-width: 1px; stroke: black; stroke-linecap: square;" transform="rotate(240,18,18)"/><path d="M 18,18 m 0,7.5 l -0,2.25 " style="fill: none; stroke-width: 1px; stroke: black; stroke-linecap: square;" transform="rotate(270,18,18)"/><path d="M 18,18 m 0,7.5 l -0,2.25 " style="fill: none; stroke-width: 1px; stroke: black; stroke-linecap: square;" transform="rotate(300,18,18)"/><path d="M 18,18 m 0,7.5 l -0,2.25 " style="fill: none; stroke-width: 1px; stroke: black; stroke-linecap: square;" transform="rotate(330,18,18)"/></g><rect style="fill: none; stroke-opacity: 0; stroke: white; stroke-width: 15px;" class="djs-hit djs-hit-all" x="0" y="0" width="36" height="36"/><rect x="-6" y="-6" width="48" height="48" style="fill: none;" class="djs-outline"/></g></g><g class="djs-group"><g class="djs-element djs-shape" data-element-id="Event_1pha25z" transform="matrix(1, 0, 0, 1, 452, 512)" style="display: block;"><g class="djs-visual"><circle cx="18" cy="18" r="18" style="stroke: black; stroke-width: 1px; fill: white; fill-opacity: 0.95;"/><circle cx="18" cy="18" r="15" style="stroke: black; stroke-width: 1px; fill: none;"/><path d="m 8.459999999999999,11.34 l 0,12.6 l 18.900000000000002,0 l 0,-12.6 z l 9.450000000000001,5.4 l 9.450000000000001,-5.4" style="fill: white; stroke-width: 1px; stroke: black;"/></g><rect style="fill: none; stroke-opacity: 0; stroke: white; stroke-width: 15px;" class="djs-hit djs-hit-all" x="0" y="0" width="36" height="36"/><rect x="-6" y="-6" width="48" height="48" style="fill: none;" class="djs-outline"/></g></g><g class="djs-group"><g class="djs-element djs-shape" data-element-id="Gateway_06zlz2k" transform="matrix(1, 0, 0, 1, 935, 505)" style="display: block;"><g class="djs-visual"><polygon points="25,0 50,25 25,50 0,25" style="stroke: black; stroke-width: 2px; fill: white; fill-opacity: 0.95;"/><path d="m 16,15 7.42857142857143,9.714285714285715 -7.42857142857143,9.714285714285715 3.428571428571429,0 5.714285714285715,-7.464228571428572 5.714285714285715,7.464228571428572 3.428571428571429,0 -7.42857142857143,-9.714285714285715 7.42857142857143,-9.714285714285715 -3.428571428571429,0 -5.714285714285715,7.464228571428572 -5.714285714285715,-7.464228571428572 -3.428571428571429,0 z" style="fill: black; stroke-width: 1px; stroke: black;"/></g><rect style="fill: none; stroke-opacity: 0; stroke: white; stroke-width: 15px;" class="djs-hit djs-hit-all" x="0" y="0" width="50" height="50"/><rect x="-6" y="-6" width="62" height="62" style="fill: none;" class="djs-outline"/></g></g><g class="djs-group"><g class="djs-element djs-shape" data-element-id="Activity_0wwtytq" transform="matrix(1, 0, 0, 1, 1070, 430)" style="display: block;"><g class="djs-visual"><rect x="0" y="0" width="100" height="80" rx="10" ry="10" style="stroke: black; stroke-width: 2px; fill: white; fill-opacity: 0.95;"/><text style="font-family: Arial, sans-serif; font-size: 12px; font-weight: normal; fill: black;" lineHeight="1.2" class="djs-label"><tspan x="8" y="36.4">Send output for </tspan><tspan x="16" y="50.8">visualization</tspan></text></g><rect style="fill: none; stroke-opacity: 0; stroke: white; stroke-width: 15px;" class="djs-hit djs-hit-all" x="0" y="0" width="100" height="80"/><rect x="-6" y="-6" width="112" height="92" style="fill: none;" class="djs-outline"/></g></g><g class="djs-group"><g class="djs-element djs-shape" data-element-id="Event_1wxv4q6" transform="matrix(1, 0, 0, 1, 1262, 522)" style="display: block;"><g class="djs-visual"><circle cx="18" cy="18" r="18" style="stroke: black; stroke-width: 4px; fill: white; fill-opacity: 0.95;"/></g><rect style="fill: none; stroke-opacity: 0; stroke: white; stroke-width: 15px;" class="djs-hit djs-hit-all" x="0" y="0" width="36" height="36"/><rect x="-6" y="-6" width="48" height="48" style="fill: none;" class="djs-outline"/></g></g><g class="djs-group"><g class="djs-element djs-shape" data-element-id="Activity_1jsn44q" transform="matrix(1, 0, 0, 1, 1070, 570)" style="display: block;"><g class="djs-visual"><rect x="0" y="0" width="100" height="80" rx="10" ry="10" style="stroke: black; stroke-width: 2px; fill: white; fill-opacity: 0.95;"/><text style="font-family: Arial, sans-serif; font-size: 12px; font-weight: normal; fill: black;" lineHeight="1.2" class="djs-label"><tspan x="20.5" y="36.4">Send error </tspan><tspan x="23" y="50.8">message</tspan></text></g><rect style="fill: none; stroke-opacity: 0; stroke: white; stroke-width: 15px;" class="djs-hit djs-hit-all" x="0" y="0" width="100" height="80"/><rect x="-6" y="-6" width="112" height="92" style="fill: none;" class="djs-outline"/></g></g></g></g><g class="djs-group"><g class="djs-element djs-shape" data-element-id="Event_19xrnth_label" transform="matrix(1, 0, 0, 1, 666, 555)" style="display: block;"><g class="djs-visual"><text style="font-family: Arial, sans-serif; font-size: 11px; font-weight: normal; fill: black;" lineHeight="1.2" class="djs-label"><tspan x="0" y="9.899999999999999">Wait for response</tspan></text></g><rect style="fill: none; stroke-opacity: 0; stroke: white; stroke-width: 15px;" class="djs-hit djs-hit-all" x="0" y="0" width="88" height="14"/><rect x="-6" y="-6" width="100" height="26" style="fill: none;" class="djs-outline"/></g></g><g class="djs-group"><g class="djs-element djs-shape" data-element-id="Flow_10fafsk_label" transform="matrix(1, 0, 0, 1, 991, 476)" style="display: block;"><g class="djs-visual"><text style="font-family: Arial, sans-serif; font-size: 11px; font-weight: normal; fill: black;" lineHeight="1.2" class="djs-label"><tspan x="4" y="9.899999999999999">Receive </tspan><tspan x="0" y="23.099999999999998">prediction</tspan></text></g><rect style="fill: none; stroke-opacity: 0; stroke: white; stroke-width: 15px;" class="djs-hit djs-hit-all" x="0" y="0" width="48" height="27"/><rect x="-6" y="-6" width="60" height="39" style="fill: none;" class="djs-outline"/></g></g><g class="djs-group"><g class="djs-element djs-shape" data-element-id="Flow_1v8eama_label" transform="matrix(1, 0, 0, 1, 975, 583)" style="display: block;"><g class="djs-visual"><text style="font-family: Arial, sans-serif; font-size: 11px; font-weight: normal; fill: black;" lineHeight="1.2" class="djs-label"><tspan x="0" y="9.899999999999999">Failed prediction</tspan></text></g><rect style="fill: none; stroke-opacity: 0; stroke: white; stroke-width: 15px;" class="djs-hit djs-hit-all" x="0" y="0" width="79" height="14"/><rect x="-6" y="-6" width="91" height="26" style="fill: none;" class="djs-outline"/></g></g><g class="djs-group"><g class="djs-element djs-shape" data-element-id="Event_1man86o_label" transform="matrix(1, 0, 0, 1, 586, 215)" style="display: block;"><g class="djs-visual"><text style="font-family: Arial, sans-serif; font-size: 11px; font-weight: normal; fill: black;" lineHeight="1.2" class="djs-label"><tspan x="0" y="9.899999999999999">Wait for response</tspan></text></g><rect style="fill: none; stroke-opacity: 0; stroke: white; stroke-width: 15px;" class="djs-hit djs-hit-all" x="0" y="0" width="88" height="14"/><rect x="-6" y="-6" width="100" height="26" style="fill: none;" class="djs-outline"/></g></g><g class="djs-group"><g class="djs-element djs-connection" data-element-id="Flow_0918y6b" style="display: block;"><g class="djs-visual"><path d="m  350,230L350,371 L470,371 L470,512 " style="fill: none; stroke-width: 1.5px; stroke: black; marker-end: url('#messageflow-end-white-black-b2tltrh9e059gtbrlj3nohnuy'); marker-start: url('#messageflow-start-white-black-b2tltrh9e059gtbrlj3nohnuy'); stroke-dasharray: 10px, 12px; stroke-linecap: round; stroke-linejoin: round;"/></g><polyline points="350,230 350,371 470,371 470,512 " style="fill: none; stroke-opacity: 0; stroke: white; stroke-width: 15px;" class="djs-hit djs-hit-stroke"/><rect x="344" y="224" width="132" height="294" style="fill: none;" class="djs-outline"/></g></g><g class="djs-group"><g class="djs-element djs-connection" data-element-id="Flow_0crygnz" style="display: block;"><g class="djs-visual"><path d="m  1120,430L1120,330 L920,330 L920,230 " style="fill: none; stroke-width: 1.5px; stroke: black; marker-end: url('#messageflow-end-white-black-b2tltrh9e059gtbrlj3nohnuy'); marker-start: url('#messageflow-start-white-black-b2tltrh9e059gtbrlj3nohnuy'); stroke-dasharray: 10px, 12px; stroke-linecap: round; stroke-linejoin: round;"/></g><polyline points="1120,430 1120,330 920,330 920,230 " style="fill: none; stroke-opacity: 0; stroke: white; stroke-width: 15px;" class="djs-hit djs-hit-stroke"/><rect x="914" y="224" width="212" height="212" style="fill: none;" class="djs-outline"/></g></g></svg>